<?xml version="1.0" standalone="no"?>
<!DOCTYPE svg PUBLIC "-//W3C//DTD SVG 20010904//EN"
 "http://www.w3.org/TR/2001/REC-SVG-20010904/DTD/svg10.dtd">
<svg version="1.0" xmlns="http://www.w3.org/2000/svg"
 width="900.000000pt" height="900.000000pt" viewBox="0 0 900.000000 900.000000"
 preserveAspectRatio="xMidYMid meet">
<g transform="translate(0.000000,900.000000) scale(0.100000,-0.100000)"
fill="#b45f06" stroke="none">
<path d="M5249 7909 c-6 -4 -41 -7 -78 -8 -36 0 -111 -6 -166 -12 -55 -6 -111
-11 -125 -10 -14 0 -45 -6 -70 -14 -25 -7 -81 -18 -125 -25 -44 -6 -89 -16
-100 -20 -11 -5 -47 -14 -80 -20 -33 -7 -105 -25 -160 -42 -55 -16 -109 -32
-120 -35 -11 -3 -34 -11 -52 -19 -17 -8 -37 -14 -45 -14 -7 0 -37 -11 -66 -25
-29 -13 -54 -23 -55 -22 -2 1 -21 -7 -43 -17 -21 -11 -52 -25 -69 -32 -56 -24
-174 -80 -195 -94 -8 -6 -35 -19 -59 -30 -24 -11 -57 -32 -73 -45 -16 -14 -36
-25 -43 -25 -7 0 -35 -17 -62 -37 -54 -42 -73 -55 -118 -79 -16 -9 -41 -27
-55 -40 -31 -29 -104 -86 -150 -118 -45 -30 -345 -337 -385 -392 -16 -23 -51
-70 -77 -103 -27 -34 -48 -65 -48 -69 -1 -4 -14 -23 -30 -42 -17 -19 -30 -39
-30 -45 0 -5 -18 -36 -39 -67 -21 -32 -63 -106 -92 -165 -64 -131 -89 -197
-141 -373 -52 -178 -64 -497 -24 -650 59 -227 169 -371 353 -465 90 -45 105
-50 181 -53 87 -4 192 10 245 32 18 8 52 22 77 31 25 9 52 21 60 25 8 5 47 25
85 45 75 40 227 137 260 166 11 10 78 69 150 131 151 131 219 198 274 269 54
67 76 149 40 149 -5 0 -9 -9 -9 -19 0 -11 -8 -22 -18 -25 -10 -4 -41 -28 -68
-54 -178 -171 -308 -288 -380 -345 -32 -25 -75 -60 -94 -76 -19 -17 -38 -31
-42 -31 -3 0 -30 -16 -60 -35 -73 -49 -243 -131 -319 -155 -47 -14 -92 -20
-167 -20 -95 0 -108 2 -165 31 -34 17 -85 48 -114 69 -51 39 -143 148 -143
170 0 7 -6 24 -14 38 -44 84 -67 194 -73 352 -7 171 15 303 84 505 14 39 27
79 30 90 6 22 59 141 73 165 6 8 21 38 35 65 15 28 35 64 45 80 11 17 24 39
30 50 15 31 31 55 78 117 23 31 42 59 42 62 0 7 13 24 121 150 111 130 168
188 254 261 39 32 72 62 75 65 9 12 249 190 256 190 3 0 23 14 44 30 21 17 40
30 43 30 4 0 23 12 44 26 21 14 47 30 58 35 11 5 36 19 55 30 42 25 81 45 175
89 96 45 118 54 240 101 95 37 195 71 233 79 24 6 48 12 54 16 18 11 244 61
338 74 36 5 81 14 100 20 19 5 55 10 80 10 25 0 86 7 135 15 129 21 783 21
910 0 50 -8 115 -15 145 -15 30 0 77 -7 104 -15 27 -8 68 -15 92 -15 23 0 55
-5 71 -11 15 -6 48 -15 73 -19 63 -13 159 -37 195 -49 17 -5 75 -24 130 -41
121 -38 153 -52 305 -125 262 -127 475 -298 594 -475 48 -73 116 -197 116
-214 0 -6 7 -23 14 -38 8 -15 21 -63 30 -105 13 -71 19 -112 31 -238 6 -59
-14 -274 -30 -320 -7 -22 -23 -73 -35 -113 -13 -40 -27 -75 -31 -78 -5 -3 -9
-13 -9 -23 0 -22 -77 -172 -142 -276 -27 -44 -55 -89 -61 -100 -7 -11 -17 -24
-23 -30 -6 -5 -31 -37 -57 -70 -55 -72 -208 -229 -297 -305 -36 -30 -67 -58
-70 -61 -20 -22 -277 -206 -310 -222 -8 -4 -28 -16 -45 -27 -16 -11 -39 -24
-50 -30 -11 -6 -33 -19 -50 -29 -57 -37 -315 -161 -415 -200 -30 -12 -64 -26
-75 -31 -11 -4 -45 -16 -75 -25 -30 -9 -68 -21 -85 -27 -48 -16 -185 -39 -247
-41 -82 -4 -94 -21 -34 -47 26 -11 54 -20 62 -20 49 0 209 -106 296 -196 39
-40 178 -236 178 -250 0 -3 13 -32 29 -67 35 -75 54 -127 71 -187 17 -63 39
-260 39 -350 0 -83 -22 -291 -33 -309 -4 -6 -11 -32 -16 -59 -8 -47 -21 -88
-47 -149 -7 -17 -13 -35 -13 -40 0 -7 -48 -111 -71 -153 -4 -8 -18 -33 -30
-55 -11 -22 -34 -59 -50 -83 -16 -24 -29 -45 -29 -48 0 -3 -33 -49 -74 -102
-167 -220 -406 -416 -651 -531 -38 -18 -79 -38 -90 -43 -11 -6 -33 -15 -50
-19 -16 -4 -43 -12 -60 -18 -174 -61 -514 -74 -675 -25 -163 50 -293 128 -415
251 -96 96 -146 187 -190 348 -20 74 -16 282 7 365 48 174 166 344 311 447 64
46 87 61 107 69 8 4 39 18 69 31 94 44 220 78 336 93 39 5 95 16 125 24 30 9
67 16 83 16 34 0 34 10 2 40 -20 19 -35 23 -82 22 -75 -2 -119 -7 -168 -19
-22 -6 -74 -16 -115 -24 -41 -7 -88 -21 -105 -31 -16 -10 -37 -18 -45 -18 -8
0 -33 -9 -55 -19 -22 -11 -76 -37 -120 -57 -44 -21 -84 -40 -88 -42 -22 -11
17 83 112 268 12 23 25 48 70 140 23 47 49 99 58 115 9 17 40 80 69 140 30 61
63 128 75 150 32 61 147 289 244 485 48 96 98 190 111 209 13 19 24 42 24 51
0 10 7 23 15 30 8 7 15 18 15 25 0 7 7 18 15 25 8 7 15 18 15 25 0 7 19 42 43
78 23 36 69 110 101 164 58 95 82 131 126 183 11 14 52 68 90 120 126 171 134
183 193 254 164 200 328 363 625 627 56 49 102 96 102 103 0 8 7 19 15 26 21
17 19 30 -5 30 -24 0 -106 -57 -273 -190 -167 -132 -448 -426 -602 -630 -27
-36 -52 -67 -56 -70 -8 -6 -79 -106 -125 -177 -19 -29 -40 -56 -48 -60 -13 -7
-86 -109 -86 -119 0 -3 -12 -23 -27 -47 -36 -56 -50 -78 -63 -102 -6 -11 -19
-33 -30 -50 -11 -16 -24 -39 -30 -50 -6 -11 -19 -33 -30 -50 -10 -16 -36 -63
-56 -103 -21 -40 -44 -78 -51 -84 -7 -6 -13 -16 -13 -23 0 -6 -11 -32 -25 -56
-14 -24 -27 -51 -31 -59 -3 -8 -10 -22 -15 -30 -5 -8 -12 -22 -15 -30 -7 -16
-400 -805 -414 -830 -5 -8 -18 -35 -30 -60 -11 -25 -25 -53 -30 -62 -19 -35
-29 -54 -85 -163 -31 -60 -85 -164 -120 -230 -35 -66 -76 -142 -90 -170 -14
-27 -48 -90 -75 -140 -27 -49 -61 -112 -75 -140 -14 -27 -35 -63 -45 -80 -11
-16 -24 -39 -30 -50 -6 -11 -19 -33 -30 -50 -11 -16 -23 -37 -27 -45 -4 -8
-26 -43 -50 -77 -24 -35 -43 -66 -43 -69 0 -3 -20 -32 -45 -64 -25 -32 -45
-61 -45 -65 0 -14 -255 -323 -330 -400 -106 -109 -186 -184 -240 -225 -25 -18
-50 -38 -55 -44 -16 -17 -132 -95 -157 -106 -13 -6 -30 -14 -38 -19 -8 -5 -33
-16 -55 -24 -22 -8 -58 -22 -80 -30 -165 -62 -489 -97 -589 -63 -26 9 -62 16
-81 16 -19 0 -49 6 -67 14 -18 7 -58 21 -88 31 -30 9 -68 23 -85 30 -16 8 -50
23 -75 34 -128 58 -279 185 -359 301 -13 19 -26 37 -30 40 -6 5 -22 34 -75
134 -14 27 -26 56 -26 66 0 9 -7 25 -15 36 -8 10 -15 27 -15 37 0 11 -6 33
-14 50 -19 44 -35 106 -54 217 -23 134 -23 484 1 640 22 150 42 248 56 283 6
16 11 39 11 52 0 12 7 36 15 51 8 16 15 37 15 46 0 17 20 69 46 120 8 14 14
35 14 46 0 11 7 25 15 32 8 7 15 17 15 23 0 12 63 138 91 182 10 17 22 37 26
45 3 8 19 31 35 51 15 20 28 40 28 44 0 38 346 395 383 395 13 0 14 -22 9
-148 -4 -119 -2 -158 12 -204 9 -31 16 -64 16 -73 0 -28 76 -192 118 -255 28
-42 133 -160 142 -160 4 0 38 -20 76 -45 37 -25 76 -45 85 -45 9 0 33 -7 52
-15 44 -18 361 -21 417 -4 19 5 55 14 80 18 45 9 88 23 145 46 50 20 238 115
270 135 17 11 37 23 45 27 13 6 110 76 165 119 11 8 36 27 54 42 181 141 598
570 785 807 22 28 42 52 45 55 4 3 42 50 86 105 44 55 82 102 85 105 3 3 30
36 60 75 30 38 62 77 70 86 8 8 40 46 70 84 30 37 60 73 65 79 6 6 30 36 54
66 24 30 59 73 79 95 21 22 68 75 105 119 38 43 81 92 95 107 172 175 308 311
356 353 33 28 80 69 105 91 102 90 313 255 326 255 5 0 64 39 75 50 15 15 315
170 329 170 6 0 26 11 45 24 39 26 33 46 -16 46 -77 0 -342 -117 -453 -201
-22 -16 -62 -45 -90 -64 -221 -151 -459 -367 -735 -664 -126 -136 -124 -134
-240 -271 -45 -52 -89 -104 -99 -115 -10 -11 -44 -51 -75 -90 -31 -38 -62 -77
-68 -85 -7 -8 -34 -41 -60 -75 -25 -33 -55 -69 -65 -80 -21 -22 -166 -202
-198 -244 -11 -14 -51 -62 -89 -106 -83 -95 -80 -92 -131 -151 -22 -25 -74
-80 -115 -123 -41 -42 -96 -99 -121 -126 -52 -57 -215 -209 -273 -254 -21 -17
-44 -37 -50 -45 -16 -19 -162 -128 -194 -145 -15 -7 -36 -22 -47 -31 -26 -23
-90 -56 -210 -109 -22 -10 -57 -25 -78 -34 -21 -10 -55 -21 -75 -26 -20 -5
-66 -17 -102 -26 -46 -12 -108 -17 -208 -17 -123 0 -152 3 -210 23 -37 13 -74
28 -82 35 -8 6 -25 15 -38 19 -33 10 -162 142 -162 166 0 11 -7 22 -15 26 -16
6 -55 73 -55 94 0 6 -8 30 -19 53 -38 83 -51 144 -57 260 -3 65 -9 128 -14
140 -8 22 -84 96 -98 96 -29 0 -105 -36 -134 -63 -18 -18 -47 -42 -63 -54 -44
-31 -174 -183 -245 -286 -33 -48 -60 -90 -60 -92 0 -3 -15 -27 -33 -53 -64
-92 -195 -407 -212 -513 -4 -24 -12 -50 -17 -56 -6 -7 -8 -19 -5 -27 3 -7 -1
-33 -10 -57 -13 -39 -28 -125 -52 -309 -4 -30 -6 -149 -4 -265 5 -236 6 -256
14 -270 4 -5 10 -32 13 -60 7 -49 31 -140 47 -180 4 -11 17 -47 28 -80 43
-131 142 -303 224 -391 26 -27 47 -52 47 -55 0 -18 264 -199 288 -199 6 0 26
-9 44 -20 41 -25 218 -82 318 -104 159 -33 246 -32 480 9 85 14 193 45 206 58
4 4 16 7 26 7 10 0 48 14 83 30 35 17 68 30 72 30 4 0 28 16 52 35 24 19 47
35 50 35 20 0 280 223 349 299 18 20 60 64 92 99 33 34 60 66 60 70 0 4 22 30
50 57 27 28 50 55 50 61 0 7 11 19 25 28 14 9 25 22 25 29 0 8 19 39 43 70 85
113 113 153 159 227 51 82 73 110 88 110 16 0 31 -39 35 -93 3 -29 14 -86 25
-127 12 -41 26 -92 31 -113 11 -46 86 -164 143 -227 67 -74 168 -160 216 -183
25 -12 52 -29 60 -39 8 -9 40 -24 70 -33 30 -10 64 -23 76 -30 25 -16 194 -51
281 -59 140 -13 428 27 537 73 25 11 65 25 88 32 24 6 54 19 68 28 14 10 58
34 99 55 101 52 211 124 314 208 38 30 217 208 217 215 0 3 24 33 53 66 165
193 310 496 374 782 26 115 26 472 0 600 -10 50 -22 99 -26 110 -5 11 -14 38
-21 60 -43 139 -182 356 -303 476 -33 33 -63 59 -67 59 -4 0 -12 11 -18 25
-10 23 -9 26 11 34 12 5 47 18 77 30 30 13 80 31 110 41 30 10 79 30 107 44
29 14 58 26 63 26 22 0 303 147 400 208 201 128 232 151 390 279 36 29 80 65
99 81 19 15 39 33 45 40 6 7 33 34 60 60 27 26 74 78 105 116 31 37 75 91 98
120 24 28 47 61 52 73 6 12 36 62 69 110 32 49 69 116 83 149 13 32 32 73 41
89 10 17 18 37 18 45 0 8 7 29 16 45 9 17 30 82 46 145 28 106 30 129 31 295
1 99 -4 214 -10 255 -15 102 -70 250 -134 362 -77 136 -138 206 -294 340 -147
126 -239 181 -522 315 -41 20 -156 61 -218 78 -27 7 -106 30 -175 50 -69 20
-168 43 -220 51 -52 8 -102 17 -110 20 -8 3 -44 10 -80 14 -36 5 -101 13 -144
19 -141 19 -763 35 -787 20z"/>
<path d="M5175 7570 c-197 -21 -256 -30 -274 -39 -11 -6 -32 -11 -48 -11 -15
0 -48 -6 -73 -14 -25 -8 -68 -21 -96 -30 -29 -9 -59 -16 -68 -16 -8 0 -30 -6
-48 -14 -18 -8 -58 -24 -88 -36 -48 -19 -178 -82 -250 -121 -14 -8 -58 -36
-99 -64 -40 -27 -80 -54 -89 -60 -9 -5 -46 -32 -82 -59 -177 -133 -343 -289
-455 -431 -22 -27 -42 -52 -45 -55 -21 -19 -80 -99 -80 -108 0 -6 -3 -12 -7
-14 -11 -4 -113 -173 -113 -186 0 -6 -6 -23 -14 -39 -29 -56 -46 -101 -46
-121 0 -12 -5 -33 -10 -48 -6 -14 -13 -54 -15 -88 -14 -168 89 -349 235 -412
8 -3 29 -12 47 -20 17 -8 38 -14 48 -14 9 0 28 -6 43 -14 30 -15 140 -30 217
-29 50 0 181 25 192 37 3 3 -2 17 -11 30 -15 23 -21 25 -83 21 -138 -7 -338
29 -413 74 -69 42 -124 98 -148 151 -73 157 -17 384 153 627 136 195 440 498
572 571 13 7 29 22 36 33 6 10 16 19 20 19 5 0 27 13 50 28 135 91 191 125
270 162 115 53 329 124 437 145 47 9 103 20 125 26 123 29 369 42 505 27 41
-5 91 -11 110 -12 50 -5 232 -58 320 -94 41 -16 106 -48 144 -70 74 -43 228
-166 261 -207 11 -14 39 -48 63 -76 23 -27 42 -56 42 -63 0 -8 7 -19 15 -26 9
-7 36 -56 61 -109 25 -53 50 -103 54 -112 5 -9 12 -34 16 -55 4 -22 13 -52 20
-69 63 -153 79 -528 30 -695 -8 -25 -19 -72 -27 -105 -7 -33 -15 -64 -19 -70
-4 -5 -12 -30 -19 -55 -14 -47 -133 -284 -173 -343 -70 -104 -243 -288 -318
-340 -14 -9 -52 -36 -85 -60 -33 -23 -76 -50 -95 -60 -33 -17 -60 -31 -120
-64 -77 -42 -210 -99 -265 -113 -251 -66 -355 -89 -370 -84 -14 6 -104 -44
-105 -58 0 -13 148 -20 211 -9 172 30 182 32 274 63 17 5 44 14 60 18 53 15
120 41 130 51 5 5 17 9 26 9 9 0 22 7 29 15 7 8 19 15 27 15 9 0 49 20 90 45
40 25 76 45 78 45 5 0 106 70 115 80 3 3 23 17 45 32 54 37 213 192 255 248
18 25 39 50 45 55 10 9 80 115 112 170 7 11 29 54 49 95 20 41 43 87 50 102 8
14 14 35 14 45 0 10 4 23 9 29 10 9 21 46 46 156 7 31 16 61 20 67 3 6 12 82
19 169 11 125 11 185 1 297 -6 77 -17 156 -23 175 -6 19 -21 71 -33 115 -12
44 -25 84 -30 90 -5 5 -9 17 -9 27 0 10 -13 44 -29 75 -16 32 -32 65 -35 73
-13 30 -76 127 -123 188 -65 86 -255 262 -282 262 -6 0 -11 4 -11 8 0 9 -201
112 -218 112 -5 0 -23 7 -38 15 -16 8 -37 15 -46 15 -10 0 -32 6 -50 14 -44
18 -120 37 -188 47 -30 4 -86 12 -125 18 -78 12 -194 12 -300 1z"/>
<path d="M4970 4497 c0 -3 11 -23 25 -44 34 -50 86 -88 147 -109 44 -14 100
-44 222 -119 125 -77 307 -268 365 -385 15 -30 33 -65 39 -77 28 -54 32 -64
32 -81 0 -10 5 -23 11 -29 6 -6 13 -64 16 -129 5 -113 4 -124 -26 -219 -33
-105 -92 -223 -151 -302 -38 -50 -160 -173 -172 -173 -4 0 -29 -13 -56 -30
-94 -58 -163 -65 -297 -31 -54 13 -129 97 -150 166 -33 106 -31 133 12 255 20
56 23 122 6 127 -7 3 -13 0 -13 -7 0 -6 -12 -23 -28 -38 -42 -42 -68 -91 -86
-165 -22 -87 -10 -151 50 -265 26 -50 125 -152 148 -152 5 0 18 -8 28 -17 27
-24 245 -24 282 1 14 9 31 16 39 16 30 0 170 105 231 173 84 94 166 202 166
220 0 8 7 20 15 27 8 7 15 18 15 25 0 8 6 26 14 42 15 29 35 98 57 193 23 97
7 297 -29 366 -5 10 -21 44 -35 74 -42 91 -140 231 -213 303 -88 86 -185 167
-201 167 -7 0 -13 4 -13 9 0 16 -166 110 -215 122 -28 6 -71 18 -97 25 -26 8
-55 14 -64 14 -10 0 -31 12 -46 27 -15 15 -28 24 -28 20z"/>
</g>
</svg>
